<svg id="Illustration" xmlns="http://www.w3.org/2000/svg" width="648" height="392.008" viewBox="0 0 648 392.008">
  <circle id="Ellipse_1" data-name="Ellipse 1" cx="21.421" cy="21.421" r="21.421" transform="translate(351.682 104.542)" fill="#2f2e41"/>
  <path id="Path_2" data-name="Path 2" d="M681.878,293.364a21.424,21.424,0,0,1,18.857,31.587,21.416,21.416,0,1,0-35.581-23.532A21.368,21.368,0,0,1,681.878,293.364Z" transform="translate(-302.807 -188.233)" fill="#2f2e41"/>
  <circle id="Ellipse_2" data-name="Ellipse 2" cx="62.924" cy="62.924" r="62.924" transform="translate(270.151 0.069)" fill="#2f2e41"/>
  <path id="Path_3" data-name="Path 3" d="M518.168,140.927a62.913,62.913,0,0,1,87.2-6.6c-.515-.489-1.024-.982-1.558-1.458A62.924,62.924,0,0,0,520.2,226.927c.535.475,1.084.923,1.63,1.377a62.913,62.913,0,0,1-3.663-87.377Z" transform="translate(-234.478 -116.975)" fill="#2f2e41"/>
  <circle id="Ellipse_3" data-name="Ellipse 3" cx="40.527" cy="40.527" r="40.527" transform="translate(292.014 44.33)" fill="#ffb8b8"/>
  <path id="Path_4" data-name="Path 4" d="M562.747,282.9s5.333,49.059-3.2,54.392,49.059,12.8,49.059,12.8-8.532-53.325,12.8-67.19Z" transform="translate(-259.001 -185.243)" fill="#ffb8b8"/>
  <path id="Path_5" data-name="Path 5" d="M557.134,350.2s15.881-7.416-6.991-4.774-42.6-7.49-42.6-7.49-6.93-6.932-8,.533,3.2,21.33-20.264,23.463-44.793-4.266-53.325,11.732-4.266,85.321-4.266,85.321,16,57.591,28.8,66.124,124.781-3.2,124.781-3.2l32-57.591v-67.19s-4.266-23.463-34.128-17.064c0,0-19.2-4.266-18.131-13.865S557.134,350.2,557.134,350.2Z" transform="translate(-202.195 -206.68)" fill="#d0cde1"/>
  <path id="Path_6" data-name="Path 6" d="M475.592,673.4c.659-2.872,1.1-4.5,1.1-4.5l-.341-2.336-3.514-23.86-1.477-10.064c12.8-5.332,16-29.863,16-29.863l.483-.288,2.184-1.307v-.006l7.84-4.7.159-.094,3.166,2.107,6.433,4.291a75.645,75.645,0,0,0,59.568,13.649,65.575,65.575,0,0,0,14.019-4.049l15.514-5.173.483-.159.477.071,9.1,1.377.165.029.753.112-2.107,14.567-3.055,21.17c8.069,4.273,15.244,12.3,21.518,22.194q2.083,3.284,4.037,6.833c1.7,3.06,3.314,6.245,4.856,9.505.188.388.371.783.553,1.177.594,1.277,1.183,2.566,1.754,3.861H472.767c.212-1.3.424-2.543.63-3.737a.917.917,0,0,0,.023-.124c.077-.4.147-.789.212-1.177C474.35,679.025,475.044,675.782,475.592,673.4Z" transform="translate(-223.072 -314.225)" fill="#2f2e41"/>
  <path id="Path_7" data-name="Path 7" d="M467.734,376.949s11.732,21.33,7.466,47.993S488,517.728,488,517.728l12.8-3.2s-8.532-55.458-6.4-68.256,2.133-62.924-8.532-69.323S467.734,376.949,467.734,376.949Z" transform="translate(-221.58 -222.77)" fill="#2f2e41"/>
  <path id="Path_8" data-name="Path 8" d="M678.467,412.287l4.483,118.079,8.532,5.333s12.265-129.581,5.866-129.581h-13.02a5.868,5.868,0,0,0-5.86,6.169Z" transform="translate(-308.282 -235.941)" fill="#2f2e41"/>
  <circle id="Ellipse_4" data-name="Ellipse 4" cx="5.333" cy="5.333" r="5.333" transform="translate(266.951 281.628)" fill="#d35656"/>
  <circle id="Ellipse_5" data-name="Ellipse 5" cx="5.333" cy="5.333" r="5.333" transform="translate(373.602 286.96)" fill="#d35656"/>
  <path id="Path_9" data-name="Path 9" d="M506.12,58.1V98.631h9.386l11.945-12.8-1.6,12.8h41.487l-2.56-12.8,5.119,12.8h6.612V58.1Z" transform="translate(-208.24 -23.907)" fill="#2f2e41"/>
  <ellipse id="Ellipse_6" data-name="Ellipse 6" cx="3.2" cy="5.866" rx="3.2" ry="5.866" transform="translate(288.281 70.459)" fill="#ffb8b8"/>
  <ellipse id="Ellipse_7" data-name="Ellipse 7" cx="3.2" cy="5.866" rx="3.2" ry="5.866" transform="translate(370.403 70.459)" fill="#ffb8b8"/>
  <path id="Path_10" data-name="Path 10" d="M685.174,610.907s-48.526-9.065-51.726,6.932,53.859,9.065,53.859,9.065Z" transform="translate(-289.709 -319.147)" fill="#ffb8b8"/>
  <path id="Path_11" data-name="Path 11" d="M714.394,426.052s116.249,92.786,94.919,115.183-102.385,16-102.385,16l5.332-26.663,46.926-5.333-23.463-23.463-21.33,2.133Z" transform="translate(-319.995 -244.142)" fill="#d0cde1"/>
  <path id="Path_12" data-name="Path 12" d="M427.869,678.365,442.8,690.1s10.665,33.062,26.663,23.463-14.931-43.727-14.931-43.727l-18.131-6.4Z" transform="translate(-205.178 -341.812)" fill="#ffb8b8"/>
  <path id="Path_13" data-name="Path 13" d="M367.149,397.058l-14.891,4.481s-103.492,76.573-107.758,97.9S264.764,532.5,264.764,532.5l92.786,43.727,9.6-25.6-43.727-22.4s3.2-6.4-9.6-7.466-14.931-14.931-14.931-14.931,25.6-39.461,39.461-30.929,18.131,14.931,18.131,14.931Z" transform="translate(-129.527 -232.213)" fill="#d0cde1"/>
  <path id="Path_14" data-name="Path 14" d="M619.318,726.535v3.573a7.852,7.852,0,0,1-.536,2.866,8.046,8.046,0,0,1-.571,1.177,7.908,7.908,0,0,1-6.8,3.861H348.594a7.908,7.908,0,0,1-6.8-3.861,8.05,8.05,0,0,1-.571-1.177,7.852,7.852,0,0,1-.536-2.866v-3.573a7.9,7.9,0,0,1,7.9-7.9h15.149v-1.666a.329.329,0,0,1,.33-.33h7.9a.329.329,0,0,1,.33.33v1.666h4.938v-1.666a.329.329,0,0,1,.33-.33h7.9a.329.329,0,0,1,.33.33v1.666h4.944v-1.666a.329.329,0,0,1,.33-.33h7.9a.329.329,0,0,1,.33.33v1.666h4.938v-1.666a.329.329,0,0,1,.33-.33h7.9a.329.329,0,0,1,.33.33v1.666h4.938v-1.666a.329.329,0,0,1,.33-.33h7.9a.329.329,0,0,1,.33.33v1.666h4.944v-1.666a.329.329,0,0,1,.33-.33h7.9a.329.329,0,0,1,.33.33v1.666h4.938v-1.666a.329.329,0,0,1,.33-.33H507.01a.329.329,0,0,1,.33.33v1.666h4.944v-1.666a.329.329,0,0,1,.33-.33h7.9a.333.333,0,0,1,.33.33v1.666h4.938v-1.666a.329.329,0,0,1,.33-.33h7.9a.329.329,0,0,1,.33.33v1.666h4.938v-1.666a.329.329,0,0,1,.33-.33h7.9a.329.329,0,0,1,.33.33v1.666h4.944v-1.666a.329.329,0,0,1,.33-.33h7.9a.328.328,0,0,1,.324.329v1.666H566.3v-1.666a.329.329,0,0,1,.33-.33h7.9a.329.329,0,0,1,.33.33v1.666H579.8v-1.666a.329.329,0,0,1,.33-.33h7.9a.329.329,0,0,1,.33.33v1.666h23.054A7.9,7.9,0,0,1,619.318,726.535Z" transform="translate(-169.308 -363.701)" fill="#3f3d56"/>
  <rect id="Rectangle_4" data-name="Rectangle 4" width="431.411" height="1.177" transform="translate(95.021 369.269)" fill="#3f3d56"/>
  <path id="Path_15" data-name="Path 15" d="M605.212,476.41H507.251v-2.019H462.831v2.019H364.467a6.626,6.626,0,0,0-6.626,6.626V617.175a6.626,6.626,0,0,0,6.626,6.626H605.212a6.626,6.626,0,0,0,6.626-6.626V483.036A6.626,6.626,0,0,0,605.212,476.41Z" transform="translate(-176.365 -264.031)" fill="#3f3d56"/>
  <circle id="Ellipse_8" data-name="Ellipse 8" cx="14.714" cy="14.714" r="14.714" transform="translate(293.953 244.496)" fill="none" stroke="#d0cde1" stroke-miterlimit="10" stroke-width="2"/>
  <circle id="Ellipse_9" data-name="Ellipse 9" cx="14.714" cy="14.714" r="14.714" transform="translate(289.245 249.793)" fill="#d0cde1"/>
  <rect id="Rectangle_5" data-name="Rectangle 5" width="111.237" height="1.331" transform="translate(15.314 390.537)" fill="#3f3d56"/>
  <rect id="Rectangle_6" data-name="Rectangle 6" width="111.237" height="1.331" transform="translate(500.873 390.537)" fill="#3f3d56"/>
  <path id="Path_16" data-name="Path 16" d="M179.8,689.269c-11.719,19.132-7.687,42.93-7.687,42.93s23.032-7.221,34.75-26.353,7.687-42.93,7.687-42.93S191.516,670.137,179.8,689.269Z" transform="translate(-99.672 -341.599)" fill="#3f3d56"/>
  <path id="Path_17" data-name="Path 17" d="M134.528,736.361l-.666-.106c-.241-.038-24.224-4.012-38.587-21.2s-14.018-41.493-14.013-41.737l.014-.674.666.106c.241.038,24.224,4.012,38.587,21.2h0c14.363,17.185,14.018,41.492,14.013,41.736Z" transform="translate(-62.568 -345.603)" fill="#d35656"/>
  <path id="Path_18" data-name="Path 18" d="M142.517,732.428l-.644-.2c-.233-.073-23.378-7.508-35.077-26.606s-7.806-43.1-7.766-43.336l.113-.665.644.2c.233.073,23.378,7.508,35.077,26.607h0c11.7,19.1,7.806,43.1,7.766,43.335Zm-42.424-69.26c-.533,4.027-2.657,24.917,7.707,41.837s29.938,24.518,33.767,25.874c.533-4.027,2.657-24.917-7.707-41.836h0c-10.364-16.92-29.938-24.519-33.767-25.875Z" transform="translate(-69.611 -341.065)" fill="#3f3d56"/>
  <circle id="Ellipse_10" data-name="Ellipse 10" cx="12.948" cy="12.948" r="12.948" transform="translate(60.222 302.711)" fill="#3f3d56"/>
  <path id="Path_19" data-name="Path 19" d="M323.347,205.094l-74.28-74.866H214v-1.177h35.559l.173.175,74.452,75.041Z" transform="translate(-88.049 -53.097)" fill="#3f3d56"/>
  <path id="Path_20" data-name="Path 20" d="M695.626,201.094l74.279-74.866h35.068v-1.177H769.414l-.172.175-74.452,75.041Z" transform="translate(-285.867 -51.451)" fill="#3f3d56"/>
  <rect id="Rectangle_7" data-name="Rectangle 7" width="85.929" height="16.996" transform="translate(0 40.222)" fill="#d0cde1"/>
  <rect id="Rectangle_8" data-name="Rectangle 8" width="85.929" height="16.996" transform="translate(0 66.301)" fill="#d0cde1"/>
  <rect id="Rectangle_9" data-name="Rectangle 9" width="85.929" height="16.996" transform="translate(0 92.381)" fill="#d0cde1"/>
  <rect id="Rectangle_10" data-name="Rectangle 10" width="35.548" height="16.996" transform="translate(0 40.222)" opacity="0.15"/>
  <rect id="Rectangle_11" data-name="Rectangle 11" width="11.508" height="16.996" transform="translate(0 66.301)" opacity="0.15"/>
  <rect id="Rectangle_12" data-name="Rectangle 12" width="57.286" height="16.996" transform="translate(0 92.381)" opacity="0.15"/>
  <rect id="Rectangle_13" data-name="Rectangle 13" width="86.061" height="7.669" transform="translate(561.939 44.04)" fill="#d0cde1"/>
  <rect id="Rectangle_14" data-name="Rectangle 14" width="17.042" height="17.042" transform="translate(529.7 43.047)" fill="#d35656"/>
  <rect id="Rectangle_15" data-name="Rectangle 15" width="17.042" height="17.042" transform="translate(529.7 68.61)" fill="#d35656"/>
  <rect id="Rectangle_16" data-name="Rectangle 16" width="17.042" height="17.042" transform="translate(529.7 94.173)" fill="#d35656"/>
  <path id="Path_21" data-name="Path 21" d="M973.719,200.334H955.5V182.115h18.219Zm-17.042-1.177h15.865V183.292H956.677Z" transform="translate(-422.268 -143.776)" fill="#3f3d56"/>
  <rect id="Rectangle_17" data-name="Rectangle 17" width="86.061" height="7.669" transform="translate(561.939 69.603)" fill="#d0cde1"/>
  <path id="Path_22" data-name="Path 22" d="M973.719,243.767H955.5V225.548h18.219Zm-17.042-1.177h15.865V226.725H956.677Z" transform="translate(-422.268 -161.646)" fill="#3f3d56"/>
  <rect id="Rectangle_18" data-name="Rectangle 18" width="86.061" height="7.669" transform="translate(561.939 95.165)" fill="#d0cde1"/>
  <path id="Path_23" data-name="Path 23" d="M973.719,287.2H955.5V268.981h18.219Zm-17.042-1.177h15.865V270.158H956.677Z" transform="translate(-422.268 -179.517)" fill="#3f3d56"/>
  <circle id="Ellipse_11" data-name="Ellipse 11" cx="9.417" cy="9.417" r="9.417" transform="translate(101.82 39.463)" fill="#d35656"/>
  <circle id="Ellipse_12" data-name="Ellipse 12" cx="9.417" cy="9.417" r="9.417" transform="translate(101.82 67.714)" fill="#d35656"/>
  <circle id="Ellipse_13" data-name="Ellipse 13" cx="9.417" cy="9.417" r="9.417" transform="translate(101.82 93.022)" fill="#d35656"/>
  <path id="Path_24" data-name="Path 24" d="M223.505,199.036a10.005,10.005,0,1,1,10.005-10.005A10.005,10.005,0,0,1,223.505,199.036Zm0-18.834a8.828,8.828,0,1,0,8.828,8.828A8.828,8.828,0,0,0,223.505,180.2Z" transform="translate(-116.977 -142.505)" fill="#3f3d56"/>
  <path id="Path_25" data-name="Path 25" d="M223.505,247.036a10.005,10.005,0,1,1,10.005-10.005A10.005,10.005,0,0,1,223.505,247.036Zm0-18.834a8.828,8.828,0,1,0,8.828,8.828A8.828,8.828,0,0,0,223.505,228.2Z" transform="translate(-116.977 -162.254)" fill="#3f3d56"/>
  <path id="Path_26" data-name="Path 26" d="M223.505,290.036a10.005,10.005,0,1,1,10.005-10.005,10.005,10.005,0,0,1-10.005,10.005Zm0-18.834a8.828,8.828,0,1,0,8.828,8.828A8.828,8.828,0,0,0,223.505,271.2Z" transform="translate(-116.977 -179.946)" fill="#3f3d56"/>
  <path id="Path_27" data-name="Path 27" d="M1006.819,694.1h-1.177v-8.828a1.768,1.768,0,0,1,1.766-1.766h2.943a.589.589,0,0,0,.589-.589v-5.886a.589.589,0,0,0-.589-.589h-2.943a1.768,1.768,0,0,1-1.766-1.766v-2.943a.589.589,0,0,0-.589-.589h-5.3a1.768,1.768,0,0,1-1.766-1.766v-.589a.589.589,0,0,0-.589-.589H976.214a.589.589,0,0,0-.589.589v.589a1.768,1.768,0,0,1-1.766,1.766h-5.3a.589.589,0,0,0-.589.589v2.943a1.767,1.767,0,0,1-1.766,1.766h-2.943a.589.589,0,0,0-.589.589v5.886a.589.589,0,0,0,.589.589H966.8a1.768,1.768,0,0,1,1.766,1.766V694.1h-1.177v-8.828a.589.589,0,0,0-.589-.589h-3.531a1.768,1.768,0,0,1-1.766-1.766v-5.886a1.768,1.768,0,0,1,1.766-1.766h2.943a.589.589,0,0,0,.589-.589v-2.943a1.768,1.768,0,0,1,1.766-1.766h5.3a.589.589,0,0,0,.589-.589v-.589a1.768,1.768,0,0,1,1.766-1.766H997.4a1.768,1.768,0,0,1,1.766,1.766v.589a.589.589,0,0,0,.589.589h5.3a1.768,1.768,0,0,1,1.766,1.766v2.943a.589.589,0,0,0,.589.589h2.943a1.767,1.767,0,0,1,1.766,1.766v5.886a1.767,1.767,0,0,1-1.766,1.766h-2.943a.589.589,0,0,0-.589.589Z" transform="translate(-424.737 -343.29)" fill="#3f3d56"/>
  <path id="Path_28" data-name="Path 28" d="M1009.168,764.1h-35.9a1.768,1.768,0,0,1-1.766-1.766V737.025h1.177v25.308a.589.589,0,0,0,.589.589h35.9a.589.589,0,0,0,.589-.589V737.025h1.177v25.308a1.767,1.767,0,0,1-1.766,1.766Z" transform="translate(-428.852 -372.091)" fill="#3f3d56"/>
  <rect id="Rectangle_19" data-name="Rectangle 19" width="46.496" height="14.125" rx="2" transform="translate(542.648 354.929)" fill="#d35656"/>
  <path id="Path_29" data-name="Path 29" d="M1009.907,727.328H965.766A1.768,1.768,0,0,1,964,725.562V713.791a1.768,1.768,0,0,1,1.766-1.766h44.142a1.768,1.768,0,0,1,1.766,1.766v11.771a1.767,1.767,0,0,1-1.766,1.766ZM965.766,713.2a.589.589,0,0,0-.589.589v11.771a.589.589,0,0,0,.589.589h44.142a.589.589,0,0,0,.589-.589V713.791a.589.589,0,0,0-.589-.589Z" transform="translate(-425.766 -361.805)" fill="#3f3d56"/>
  <path id="Path_30" data-name="Path 30" d="M999.328,625.464h0a146.917,146.917,0,0,1-1.233-31.847l1.233-17.591h0c-6.793,13.516-5.258,31.307,0,49.439Z" transform="translate(-438.434 -305.848)" fill="#d0cde1"/>
  <path id="Path_31" data-name="Path 31" d="M1009.974,644.453h0a108,108,0,0,1-.593-18.957l.593-10.471h0C1006.706,623.071,1007.444,633.66,1009.974,644.453Z" transform="translate(-443.783 -321.895)" fill="#d0cde1"/>
</svg>
